<svg width="159" height="160" viewBox="0 0 159 160" fill="none" xmlns="http://www.w3.org/2000/svg">
<mask id="mask0" mask-type="alpha" maskUnits="userSpaceOnUse" x="31" y="6" width="97" height="154">
<path d="M79.5 160L36.4679 76.6423C19.8286 44.41 43.2262 6 79.5 6V6C115.774 6 139.171 44.41 122.532 76.6423L79.5 160Z" fill="#DAD6D6"/>
</mask>
<g mask="url(#mask0)">
<path d="M79.5 160L36.4679 76.6423C19.8286 44.41 43.2262 6 79.5 6V6C115.774 6 139.171 44.41 122.532 76.6423L79.5 160Z" fill="#DAD6D6"/>
<path fill-rule="evenodd" clip-rule="evenodd" d="M51.5379 17.5858C47.5845 20.2719 44.2856 22.5132 37.7789 21.7189C30.2438 20.7992 20.2025 13.5138 20.2025 13.5138C20.2025 13.5138 29.6497 35.4092 42.4564 39.411C50.0721 41.7908 55.3716 41.7156 62.9087 39.1029C70.1032 36.6089 76.118 31.0137 78.8071 23.9685C78.9201 23.6726 79.0176 23.3782 79.1013 23.0865C79.1849 23.3782 79.2824 23.6726 79.3954 23.9685C82.0845 31.0137 88.0993 36.6089 95.2939 39.1029C102.831 41.7156 108.13 41.7908 115.746 39.411C128.553 35.4092 138 13.5138 138 13.5138C138 13.5138 127.959 20.7992 120.424 21.7189C113.917 22.5132 110.618 20.2719 106.665 17.5858C104.29 15.9721 101.678 14.1979 97.9932 12.8249C97.6377 12.6924 97.2416 12.5407 96.8165 12.3778C94.3549 11.4346 90.9182 10.1177 88.7208 10.0055C84.6237 9.7964 79.4219 15.5774 79.4219 15.5774C79.4219 15.5774 79.2695 15.94 79.1013 16.5657C78.933 15.94 78.7806 15.5774 78.7806 15.5774C78.7806 15.5774 73.5788 9.7964 69.4817 10.0055C67.2843 10.1177 63.8476 11.4346 61.386 12.3778C60.9609 12.5407 60.5649 12.6924 60.2093 12.8249C56.5243 14.1979 53.913 15.9721 51.5379 17.5858Z" fill="#B3B3B3"/>
</g>
<path fill-rule="evenodd" clip-rule="evenodd" d="M44.8915 9.5351C39.9847 12.9114 35.8904 15.7287 27.8147 14.7304C18.4626 13.5743 6 4.41678 6 4.41678C6 4.41678 17.7252 31.9386 33.62 36.9688C43.0722 39.9601 49.6496 39.8656 59.0041 36.5815C67.9334 33.4466 75.3986 26.4136 78.7362 17.558C78.8764 17.1861 78.9975 16.816 79.1013 16.4494C79.2051 16.816 79.3261 17.1861 79.4663 17.558C82.8039 26.4136 90.2691 33.4466 99.1984 36.5815C108.553 39.8656 115.13 39.9601 124.583 36.9688C140.477 31.9386 152.203 4.41678 152.203 4.41678C152.203 4.41678 139.74 13.5743 130.388 14.7304C122.312 15.7287 118.218 12.9114 113.311 9.5351C110.363 7.50678 107.122 5.27668 102.549 3.55082C102.107 3.3843 101.616 3.19355 101.088 2.9888C98.0331 1.80323 93.7677 0.147957 91.0404 0.00696462C85.9554 -0.255919 79.4992 7.01057 79.4992 7.01057C79.4992 7.01057 79.3101 7.46647 79.1013 8.25285C78.8924 7.46647 78.7033 7.01057 78.7033 7.01057C78.7033 7.01057 72.2471 -0.255919 67.1621 0.00696462C64.4349 0.147957 60.1693 1.80324 57.1142 2.98881C56.5866 3.19356 56.0951 3.3843 55.6538 3.55082C51.0802 5.27668 47.8392 7.50678 44.8915 9.5351Z" fill="#DAD6D6"/>
</svg>
