<svg width="107" height="84" viewBox="0 0 107 84" fill="none" xmlns="http://www.w3.org/2000/svg">
<path d="M34.2818 55.4281L20.8139 40.4569C18.8294 37.9469 15.9353 36.3223 12.7607 35.9363C9.58613 35.5502 6.38761 36.4339 3.8603 38.3951C1.52404 40.5754 0.140653 43.5897 0.0101451 46.7842C-0.120363 49.9787 1.01253 53.0959 3.16314 55.4598L24.4265 79.122C26.4107 81.6343 29.308 83.2581 32.4848 83.6385C35.6617 84.0189 38.8598 83.1249 41.3801 81.152V81.152C41.8441 80.7506 42.2783 80.3159 42.6794 79.8516L102.698 19.7762C104.86 17.5958 106.073 14.6486 106.073 11.5769C106.073 8.50526 104.86 5.55807 102.698 3.37765V3.37765C100.52 1.21408 97.5756 0 94.5068 0C91.438 0 88.4936 1.21408 86.3152 3.37765" fill="#0091EA"/>
</svg>
