<svg width="154" height="246" viewBox="0 0 154 246" fill="none" xmlns="http://www.w3.org/2000/svg">
<rect y="7.89209" width="24.2527" height="99.4163" rx="5" transform="rotate(-18.9904 0 7.89209)" fill="#58595B"/>
<rect width="24.2527" height="99.4163" rx="5" transform="matrix(-0.945573 -0.32541 -0.32541 0.945573 154 7.89209)" fill="#58595B"/>
<path d="M10.9631 100.126C11.4833 92.2427 18.0297 86.1141 25.9305 86.1141H127.8C135.671 86.1141 142.204 92.199 142.762 100.051L151.924 228.977C152.541 237.658 145.665 245.04 136.962 245.04H17.4227C8.74975 245.04 1.88417 237.707 2.45526 229.052L10.9631 100.126Z" fill="#414042"/>
<rect x="29.4048" y="99.0218" width="95.1943" height="66.9587" rx="13" fill="#373638"/>
<rect x="50.3798" y="118.383" width="54.051" height="20.1683" rx="10" fill="#F7AC21"/>
</svg>
