<svg width="257" height="160" viewBox="0 0 257 160" fill="none" xmlns="http://www.w3.org/2000/svg">
<path d="M20 115.5C20 63.6322 60.574 20.8264 112.368 18.0517L132 17V160H64.4211C57.5421 160 50.7314 158.635 44.3837 155.984L14.3592 143.447C10.5248 141.846 7.19577 139.235 4.72588 135.894L3.6595 134.451C1.65386 131.738 2.27946 127.904 5.04378 125.969L20 115.5V115.5Z" fill="#FBD734"/>
<path d="M237 115.5C237 63.6322 196.426 20.8264 144.632 18.0517L125 17L125 160L192.579 160C199.458 160 206.269 158.635 212.616 155.984L242.641 143.447C246.475 141.846 249.804 139.235 252.274 135.894L253.34 134.451C255.346 131.738 254.721 127.904 251.956 125.969L237 115.5V115.5Z" fill="#F9BF2C"/>
<path d="M78.5511 30.0159C89.6263 17.2996 105.664 10 122.527 10H132V118L100.386 115.973C95.9977 115.692 92.308 112.577 91.295 108.298L75.5963 41.9845C74.5943 37.7519 75.6944 33.2959 78.5511 30.0159V30.0159Z" fill="#F9BF2C"/>
<path d="M78.7106 18.6768C90.9122 8.17179 106.17 1.87172 122.229 0.708046L132 0V112H104.797C100.449 112 96.6 109.191 95.2735 105.051L73.5073 37.1222C71.3812 30.4867 73.4302 23.223 78.7106 18.6768V18.6768Z" fill="#FFED58"/>
<path d="M180.642 19.7702C169.597 8.64264 154.863 1.93918 139.218 0.923253L125 0V112H152.203C156.551 112 160.4 109.191 161.726 105.051L184.246 34.7716C185.938 29.4904 184.548 23.7063 180.642 19.7702V19.7702Z" fill="#FBD734"/>
</svg>
