<svg width="100" height="100" viewBox="0 0 100 100" fill="none" xmlns="http://www.w3.org/2000/svg">
<g clip-path="url(#clip0)">
<circle cx="49.5617" cy="30.5617" r="16.3797" fill="#0C80C0"/>
<mask id="path-2-inside-1" fill="white">
<path fill-rule="evenodd" clip-rule="evenodd" d="M36.0315 46.0449C31.7227 49.803 29 55.3335 29 61.5V122V127H34H65H70V122V61.5C70 55.363 67.3032 49.8558 63.0301 46.0988C61.7126 47.2419 60.2482 48.2202 58.6691 49.0016C62.5082 51.8228 65 56.3704 65 61.5V122H34V61.5C34 56.3482 36.5134 51.7835 40.3809 48.965C38.8051 48.1774 37.3446 47.1933 36.0315 46.0449Z"/>
</mask>
<path fill-rule="evenodd" clip-rule="evenodd" d="M36.0315 46.0449C31.7227 49.803 29 55.3335 29 61.5V122V127H34H65H70V122V61.5C70 55.363 67.3032 49.8558 63.0301 46.0988C61.7126 47.2419 60.2482 48.2202 58.6691 49.0016C62.5082 51.8228 65 56.3704 65 61.5V122H34V61.5C34 56.3482 36.5134 51.7835 40.3809 48.965C38.8051 48.1774 37.3446 47.1933 36.0315 46.0449Z" fill="#0C80C0"/>
<path d="M36.0315 46.0449L39.3231 42.2812L36.036 39.4064L32.7449 42.2768L36.0315 46.0449ZM29 127H24V132H29V127ZM70 127V132H75V127H70ZM63.0301 46.0988L66.3316 42.3438L63.052 39.4603L59.7534 42.3221L63.0301 46.0988ZM58.6691 49.0016L56.4515 44.5203L49.0866 48.1647L55.7083 53.0307L58.6691 49.0016ZM65 122V127H70V122H65ZM34 122H29V127H34V122ZM40.3809 48.965L43.3256 53.0059L49.9664 48.1665L42.6164 44.4926L40.3809 48.965ZM32.7449 42.2768C27.3938 46.944 24 53.8286 24 61.5H34C34 56.8384 36.0516 52.6619 39.318 49.813L32.7449 42.2768ZM24 61.5V122H34V61.5H24ZM24 122V127H34V122H24ZM29 132H34V122H29V132ZM34 132H65V122H34V132ZM65 132H70V122H65V132ZM75 127V122H65V127H75ZM75 122V61.5H65V122H75ZM75 61.5C75 53.8653 71.6386 47.0097 66.3316 42.3438L59.7287 49.8539C62.9679 52.7018 65 56.8606 65 61.5H75ZM59.7534 42.3221C58.7543 43.189 57.6453 43.9296 56.4515 44.5203L60.8866 53.483C62.8512 52.5108 64.6709 51.2948 66.3068 49.8755L59.7534 42.3221ZM70 61.5C70 54.7122 66.6959 48.6953 61.6299 44.9725L55.7083 53.0307C58.3206 54.9504 60 58.0287 60 61.5H70ZM70 122V61.5H60V122H70ZM34 127H65V117H34V127ZM29 61.5V122H39V61.5H29ZM37.4361 44.9242C32.3328 48.6433 29 54.6827 29 61.5H39C39 58.0137 40.694 54.9237 43.3256 53.0059L37.4361 44.9242ZM42.6164 44.4926C41.4251 43.8972 40.3189 43.1522 39.3231 42.2812L32.7398 49.8085C34.3702 51.2344 36.185 52.4576 38.1454 53.4375L42.6164 44.4926Z" fill="#0C80C0" mask="url(#path-2-inside-1)"/>
</g>
<defs>
<clipPath id="clip0">
<rect width="41" height="71" fill="white" transform="translate(29 14)"/>
</clipPath>
</defs>
</svg>
