<svg width="100" height="100" viewBox="0 0 100 100" fill="none" xmlns="http://www.w3.org/2000/svg">
<path d="M70.8333 20.8333C74.2917 20.8333 77.0833 18.0417 77.0833 14.5833C77.0833 10.4167 70.8333 3.33334 70.8333 3.33334C70.8333 3.33334 64.5833 10.4167 64.5833 14.5833C64.5833 18.0417 67.375 20.8333 70.8333 20.8333ZM50 20.8333C53.4583 20.8333 56.25 18.0417 56.25 14.5833C56.25 10.4167 50 3.33334 50 3.33334C50 3.33334 43.75 10.4167 43.75 14.5833C43.75 18.0417 46.5417 20.8333 50 20.8333ZM29.1667 20.8333C32.625 20.8333 35.4167 18.0417 35.4167 14.5833C35.4167 10.4167 29.1667 3.33334 29.1667 3.33334C29.1667 3.33334 22.9167 10.4167 22.9167 14.5833C22.9167 18.0417 25.7083 20.8333 29.1667 20.8333ZM78.8333 33.375C77.9792 30.9167 75.6458 29.1667 72.9167 29.1667H27.0833C24.3542 29.1667 22.0208 30.9167 21.1667 33.375L12.5 58.3333V91.6667C12.5 93.9584 14.375 95.8334 16.6667 95.8334H20.8333C23.1458 95.8334 25 93.9584 25 91.6667V87.5H75V91.6667C75 93.9584 76.875 95.8334 79.1667 95.8334H83.3333C85.6458 95.8334 87.5 93.9584 87.5 91.6667V58.3333L78.8333 33.375ZM27.0833 75C23.625 75 20.8333 72.2083 20.8333 68.75C20.8333 65.2917 23.625 62.5 27.0833 62.5C30.5417 62.5 33.3333 65.2917 33.3333 68.75C33.3333 72.2083 30.5417 75 27.0833 75ZM72.9167 75C69.4583 75 66.6667 72.2083 66.6667 68.75C66.6667 65.2917 69.4583 62.5 72.9167 62.5C76.375 62.5 79.1667 65.2917 79.1667 68.75C79.1667 72.2083 76.375 75 72.9167 75ZM20.8333 54.1667L27.0833 35.4167H72.9167L79.1667 54.1667H20.8333Z" fill="#0A4A5F"/>
</svg>
