<svg width="100" height="100" viewBox="0 0 100 100" fill="none" xmlns="http://www.w3.org/2000/svg">
<mask id="path-1-inside-1" fill="white">
<path fill-rule="evenodd" clip-rule="evenodd" d="M58.8478 20.4758C63.3501 15.2425 71.2425 14.6499 76.4758 19.1522C81.3244 23.3235 82.1895 30.4046 78.7102 35.5851L68.1648 26.5127C67.7461 26.1525 67.1147 26.1999 66.7545 26.6186L61.5371 32.6831L72.9081 42.4658L66.3863 50.0464L38.0166 83.0223C35.3151 86.1623 30.5797 86.5179 27.4397 83.8164C24.2997 81.115 23.9442 76.3796 26.6456 73.2396L46.537 50.1186L45.7789 49.4664C42.0109 46.2247 41.5843 40.5422 44.8259 36.7742L47.4347 33.742L51.9999 28.4355L58.8478 20.4758Z"/>
</mask>
<path fill-rule="evenodd" clip-rule="evenodd" d="M58.8478 20.4758C63.3501 15.2425 71.2425 14.6499 76.4758 19.1522C81.3244 23.3235 82.1895 30.4046 78.7102 35.5851L68.1648 26.5127C67.7461 26.1525 67.1147 26.1999 66.7545 26.6186L61.5371 32.6831L72.9081 42.4658L66.3863 50.0464L38.0166 83.0223C35.3151 86.1623 30.5797 86.5179 27.4397 83.8164C24.2997 81.115 23.9442 76.3796 26.6456 73.2396L46.537 50.1186L45.7789 49.4664C42.0109 46.2247 41.5843 40.5422 44.8259 36.7742L47.4347 33.742L51.9999 28.4355L58.8478 20.4758Z" fill="#F35244"/>
<path d="M78.7102 35.5851L76.7536 37.8593L79.316 40.0637L81.2006 37.2577L78.7102 35.5851ZM61.5371 32.6831L59.2629 30.7266L57.3064 33.0008L59.5806 34.9573L61.5371 32.6831ZM72.9081 42.4658L75.1823 44.4223L77.1388 42.1481L74.8646 40.1916L72.9081 42.4658ZM46.537 50.1186L48.8112 52.0751L50.7677 49.8009L48.4935 47.8444L46.537 50.1186ZM78.4324 16.878C71.943 11.2951 62.1565 12.0299 56.5736 18.5193L61.122 22.4324C64.5438 18.455 70.5419 18.0046 74.5193 21.4264L78.4324 16.878ZM81.2006 37.2577C85.5168 30.8313 84.4462 22.0518 78.4324 16.878L74.5193 21.4264C78.2025 24.5952 78.8623 29.9779 76.2197 33.9124L81.2006 37.2577ZM66.2082 28.7869L76.7536 37.8593L80.6667 33.3109L70.1213 24.2385L66.2082 28.7869ZM69.0287 28.5751C68.3083 29.4124 67.0456 29.5073 66.2082 28.7869L70.1213 24.2385C68.4466 22.7977 65.9211 22.9874 64.4803 24.662L69.0287 28.5751ZM63.8113 34.6396L69.0287 28.5751L64.4803 24.662L59.2629 30.7266L63.8113 34.6396ZM74.8646 40.1916L63.4936 30.4089L59.5806 34.9573L70.9515 44.74L74.8646 40.1916ZM68.6605 52.003L75.1823 44.4223L70.6339 40.5092L64.1121 48.0899L68.6605 52.003ZM40.2908 84.9788L68.6605 52.003L64.1121 48.0899L35.7424 81.0658L40.2908 84.9788ZM25.4832 86.0906C29.8792 89.8726 36.5088 89.3748 40.2908 84.9788L35.7424 81.0658C34.1215 82.9498 31.2803 83.1631 29.3963 81.5422L25.4832 86.0906ZM24.3714 71.2831C20.5894 75.6791 21.0872 82.3087 25.4832 86.0906L29.3963 81.5422C27.5123 79.9214 27.2989 77.0802 28.9198 75.1961L24.3714 71.2831ZM44.2628 48.1621L24.3714 71.2831L28.9198 75.1961L48.8112 52.0751L44.2628 48.1621ZM43.8224 51.7406L44.5805 52.3928L48.4935 47.8444L47.7355 47.1922L43.8224 51.7406ZM42.5517 34.8177C38.2295 39.8417 38.7984 47.4184 43.8224 51.7406L47.7355 47.1922C45.2235 45.0311 44.939 41.2428 47.1001 38.7308L42.5517 34.8177ZM45.1605 31.7854L42.5517 34.8177L47.1001 38.7308L49.7089 35.6985L45.1605 31.7854ZM49.7257 26.479L45.1605 31.7854L49.7089 35.6985L54.2741 30.392L49.7257 26.479ZM56.5736 18.5193L49.7257 26.479L54.2741 30.392L61.122 22.4324L56.5736 18.5193Z" fill="black" mask="url(#path-1-inside-1)"/>
<path d="M50.2022 32.8251L58.1619 39.673C58.7899 40.2132 58.861 41.1603 58.3207 41.7883L56.3642 44.0625C55.8239 44.6905 54.8768 44.7616 54.2488 44.2213L46.2891 37.3735L50.2022 32.8251Z" fill="#C4C4C4" stroke="black" stroke-width="3"/>
<rect x="54.7145" y="26.8135" width="9" height="3" transform="rotate(40.706 54.7145 26.8135)" fill="black"/>
</svg>
