<svg width="100" height="100" viewBox="0 0 100 100" fill="none" xmlns="http://www.w3.org/2000/svg">
<path d="M23.5007 62.9537L23.501 62.9336V62.9135V17.5H76.4979V62.8435H78.9978L76.4985 62.9007C76.5185 63.7736 76.3334 64.6426 75.9533 65.4435C75.5903 66.2083 75.0568 66.8953 74.3841 67.4538L51.4378 81.9409L51.3357 82.0054L51.2403 82.0794C50.8965 82.346 50.4558 82.5 49.9904 82.5C49.525 82.5 49.0843 82.346 48.7405 82.0794L48.6451 82.0054L48.543 81.9409L25.6 67.4559C24.9376 66.9021 24.4113 66.2234 24.0513 65.4685C23.6737 64.6766 23.4868 63.8176 23.5007 62.9537Z" stroke="#4A3C9A" stroke-width="5"/>
</svg>
