<svg width="100" height="100" viewBox="0 0 100 100" fill="none" xmlns="http://www.w3.org/2000/svg">
<path fill-rule="evenodd" clip-rule="evenodd" d="M91 49.5C91 66.3447 77.3447 80 60.5 80C52.9589 80 46.0569 77.2631 40.7333 72.7285C39.2216 73.6888 37.5882 74.4746 35.8615 75.0577C42.2457 81.2138 50.9307 85 60.5 85C80.1061 85 96 69.1061 96 49.5C96 29.8939 80.1061 14 60.5 14C47.6503 14 36.3951 20.8271 30.1639 31.0518C32.0038 31.1758 33.7833 31.5197 35.4765 32.0576C40.9891 24.1638 50.1415 19 60.5 19C77.3447 19 91 32.6553 91 49.5Z" fill="#F84A4A"/>
<path fill-rule="evenodd" clip-rule="evenodd" d="M26.6207 72.2414C36.9151 72.2414 45.6034 65.3648 48.3427 55.9545H53.7661V64.3879L72.7675 48.7159L53.7661 33.0438V41.4772H47.7312C44.462 33.0079 36.243 27 26.6207 27C14.1276 27 4 37.1276 4 49.6207C4 62.1137 14.1276 72.2414 26.6207 72.2414Z" fill="#FFC24B"/>
</svg>
