<svg width="100" height="120" viewBox="0 0 100 120" fill="none" xmlns="http://www.w3.org/2000/svg">
<g clip-path="url(#clip0)">
<path d="M100 82.1005V3.00075C100 2.2049 99.6708 1.44165 99.0847 0.878899C98.4987 0.31615 97.7038 0 96.875 0L3.12499 0C2.29619 0 1.50133 0.31615 0.915284 0.878899C0.329233 1.44165 -7.5623e-06 2.2049 -7.5623e-06 3.00075V82.1005C-0.0365416 84.2513 0.426989 86.3829 1.35682 88.3399C2.28665 90.2969 3.65937 92.0302 5.37499 93.4133L45.1875 118.38C46.5473 119.429 48.2397 120.001 49.9844 120.001C51.7291 120.001 53.4214 119.429 54.7812 118.38L94.5937 93.4133C96.3134 92.0317 97.6908 90.2994 98.626 88.3426C99.5611 86.3857 100.031 84.2534 100 82.1005Z" fill="#4A3C9A"/>
<path opacity="0.55" d="M50 120.03C48.2626 120.018 46.5794 119.447 45.2188 118.41L5.40626 93.4133C3.68493 92.0331 2.30629 90.3011 1.37098 88.3439C0.435665 86.3868 -0.0327224 84.2537 5.18787e-06 82.1005V3.00075C5.18787e-06 2.2049 0.329245 1.44165 0.915297 0.878899C1.50135 0.31615 2.2962 0 3.12501 0L50 0V120.03Z" fill="#6E62AE"/>
<path d="M61.5313 53.5034C58.1394 55.7541 54.1228 56.977 50 57.0143C47.2604 57.0245 44.5479 56.4934 42.0313 55.4539C40.7802 54.9531 39.5864 54.3297 38.4688 53.5934C33.087 54.7178 28.2641 57.5679 24.7938 61.6747C21.3234 65.7816 19.4123 70.9004 19.375 76.189V80.5101H80.6563V76.189C80.6387 70.8808 78.7328 65.7377 75.2546 61.6119C71.7763 57.486 66.9345 54.6252 61.5313 53.5034V53.5034Z" fill="white"/>
<path d="M50.0313 52.9933C59.0404 52.9933 66.3438 45.9803 66.3438 37.3293C66.3438 28.6784 59.0404 21.6654 50.0313 21.6654C41.0221 21.6654 33.7188 28.6784 33.7188 37.3293C33.7188 45.9803 41.0221 52.9933 50.0313 52.9933Z" fill="white"/>
<path d="M100 82.1005V3.00075C100.001 2.23023 99.6933 1.48886 99.1406 0.930232C98.588 0.371603 97.8327 0.0385255 97.0313 0L3.12501 0C2.29621 0 1.50135 0.31615 0.915299 0.878899C0.329248 1.44165 7.67558e-06 2.2049 7.67558e-06 3.00075V82.2206C-0.0347357 84.3697 0.432917 86.499 1.36854 88.4516C2.30416 90.4042 3.68392 92.1305 5.40626 93.5034L45.1875 118.5C46.5473 119.549 48.2397 120.121 49.9844 120.121C51.7291 120.121 53.4215 119.549 54.7813 118.5L94.5625 93.5034C96.3072 92.1208 97.7029 90.3764 98.6447 88.4014C99.5865 86.4265 100.05 84.2722 100 82.1005V82.1005Z" fill="#4A3C9A"/>
<path opacity="0.55" d="M50 120.03C48.2625 120.018 46.5794 119.447 45.2187 118.41L5.43749 93.3833C3.70945 92.0134 2.32376 90.2884 1.38265 88.3356C0.441544 86.3828 -0.0309615 84.2521 -6.33846e-06 82.1005V3.00075C-6.33846e-06 2.2049 0.329234 1.44165 0.915285 0.878899C1.50134 0.31615 2.29619 0 3.12499 0L50 0V120.03Z" fill="#6E62AE"/>
<path d="M61.5313 53.5034C60.4145 54.2493 59.2207 54.8828 57.9688 55.3938C55.4547 56.404 52.7566 56.9243 50.0313 56.9243C47.306 56.9243 44.6078 56.404 42.0938 55.3938C40.8353 54.8958 39.6401 54.2615 38.5313 53.5034C33.125 54.6243 28.2792 57.484 24.7957 61.6092C21.3123 65.7345 19.3999 70.8781 19.375 76.189V80.4801H80.6563V76.189C80.6329 70.8823 78.725 65.7419 75.2477 61.6172C71.7704 57.4925 66.9318 54.6303 61.5313 53.5034Z" fill="white"/>
<path d="M50.0313 52.9933C59.0404 52.9933 66.3438 45.9803 66.3438 37.3293C66.3438 28.6784 59.0404 21.6654 50.0313 21.6654C41.0221 21.6654 33.7188 28.6784 33.7188 37.3293C33.7188 45.9803 41.0221 52.9933 50.0313 52.9933Z" fill="white"/>
</g>
<defs>
<clipPath id="clip0">
<rect width="100" height="120" fill="white"/>
</clipPath>
</defs>
</svg>
