<svg width="239" height="459" viewBox="0 0 239 459" fill="none" xmlns="http://www.w3.org/2000/svg">
<mask id="mask0" mask-type="alpha" maskUnits="userSpaceOnUse" x="11" y="233" width="217" height="226">
<path d="M11 326C11 274.638 52.6375 233 104 233H135C186.362 233 228 274.638 228 326V459H11V326Z" fill="#15142C"/>
</mask>
<g mask="url(#mask0)">
<rect y="190" width="232" height="338" fill="#15142C"/>
<path d="M3 381H235V446H3V381Z" fill="#B48409"/>
<path d="M-4 249H228V314H-4V249Z" fill="#B48409"/>
<circle cx="120" cy="242" r="52" fill="#D29263"/>
</g>
<path d="M109.999 9.26603C115.284 4.11141 123.716 4.11141 129.001 9.26603V9.26603C133.132 13.2946 139.354 14.2802 144.528 11.7252V11.7252C151.148 8.45619 159.166 11.0617 162.6 17.5973V17.5973C165.284 22.7052 170.897 25.5653 176.607 24.7342V24.7342C183.913 23.6707 190.734 28.6266 191.981 35.9035V35.9035C192.954 41.5907 197.409 46.0455 203.096 47.0195V47.0195C210.373 48.2657 215.329 55.0869 214.266 62.3927V62.3927C213.435 68.1026 216.295 73.7159 221.403 76.3997V76.3997C227.938 79.8335 230.544 87.8524 227.275 94.472V94.472C224.72 99.6456 225.705 105.868 229.734 109.999V109.999C234.889 115.284 234.889 123.716 229.734 129.001V129.001C225.705 133.132 224.72 139.354 227.275 144.528V144.528C230.544 151.148 227.938 159.166 221.403 162.6V162.6C216.295 165.284 213.435 170.897 214.266 176.607V176.607C215.329 183.913 210.373 190.734 203.096 191.981V191.981C197.409 192.954 192.954 197.409 191.981 203.096V203.096C190.734 210.373 183.913 215.329 176.607 214.266V214.266C170.897 213.435 165.284 216.295 162.6 221.403V221.403C159.166 227.938 151.148 230.544 144.528 227.275V227.275C139.354 224.72 133.132 225.705 129.001 229.734V229.734C123.716 234.889 115.284 234.889 109.999 229.734V229.734C105.868 225.705 99.6456 224.72 94.472 227.275V227.275C87.8524 230.544 79.8335 227.938 76.3997 221.403V221.403C73.7159 216.295 68.1026 213.435 62.3927 214.266V214.266C55.0869 215.329 48.2657 210.373 47.0195 203.096V203.096C46.0455 197.409 41.5907 192.954 35.9035 191.981V191.981C28.6266 190.734 23.6707 183.913 24.7342 176.607V176.607C25.5653 170.897 22.7052 165.284 17.5973 162.6V162.6C11.0617 159.166 8.45619 151.148 11.7252 144.528V144.528C14.2802 139.354 13.2946 133.132 9.26603 129.001V129.001C4.11141 123.716 4.11141 115.284 9.26603 109.999V109.999C13.2946 105.868 14.2802 99.6456 11.7252 94.472V94.472C8.45619 87.8524 11.0617 79.8335 17.5973 76.3997V76.3997C22.7052 73.7159 25.5653 68.1026 24.7342 62.3927V62.3927C23.6707 55.0869 28.6266 48.2657 35.9035 47.0195V47.0195C41.5907 46.0455 46.0455 41.5907 47.0195 35.9035V35.9035C48.2657 28.6266 55.0869 23.6707 62.3927 24.7342V24.7342C68.1026 25.5653 73.7159 22.7052 76.3997 17.5973V17.5973C79.8335 11.0617 87.8524 8.45619 94.472 11.7252V11.7252C99.6456 14.2802 105.868 13.2946 109.999 9.26603V9.26603Z" fill="#070636"/>
<rect x="85" y="175" width="69" height="102" rx="34.5" fill="#C6804C"/>
<path d="M178 148V148C187.389 148 195 155.611 195 165V173C195 182.389 187.389 190 178 190V190V148Z" fill="#E0A579"/>
<path d="M61 190V190C51.6112 190 44 182.389 44 173V165C44 155.611 51.6112 148 61 148V148L61 190Z" fill="#E0A579"/>
<rect x="58" y="86" width="123" height="163" rx="61.5" fill="url(#paint0_linear)"/>
<path d="M112.601 24.7614C117.251 22.3978 122.749 22.3978 127.399 24.7614V24.7614C130.942 26.5624 135.02 27.0095 138.868 26.0187L142.712 25.0291C146.641 24.0178 150.812 25.1485 153.692 28.0057V28.0057C156.063 30.3587 159.34 31.5655 162.672 31.3127L169.973 30.7587C173.073 30.5235 175.934 32.4339 176.904 35.3876V35.3876C177.747 37.952 180.034 39.769 182.723 40.009L190.813 40.7312C193.535 40.9742 195.369 43.6278 194.634 46.2601V46.2601C193.983 48.5931 195.353 51.0111 197.689 51.651L203.135 53.1424C205.971 53.9191 206.954 57.4389 204.932 59.5733V59.5733C203.166 61.4379 203.658 64.4721 205.923 65.6829L206.605 66.0473C209.764 67.7357 209.764 72.2643 206.605 73.9527L205.923 74.3171C203.658 75.5279 203.166 78.5621 204.932 80.4267V80.4267C206.954 82.5611 205.971 86.0809 203.135 86.8576L197.689 88.349C195.353 88.9889 193.983 91.4069 194.634 93.7399V93.7399C195.369 96.3722 193.535 99.0257 190.813 99.2688L182.723 99.991C180.034 100.231 177.747 102.048 176.904 104.612V104.612C175.934 107.566 173.073 109.477 169.973 109.241L162.672 108.687C159.34 108.434 156.063 109.641 153.692 111.994V111.994C150.812 114.851 146.641 115.982 142.712 114.971L138.868 113.981C135.02 112.991 130.942 113.438 127.399 115.239V115.239C122.749 117.602 117.251 117.602 112.601 115.239V115.239C109.058 113.438 104.98 112.991 101.132 113.981L97.2876 114.971C93.3591 115.982 89.1882 114.851 86.3084 111.994V111.994C83.9367 109.641 80.6598 108.434 77.3284 108.687L70.0269 109.241C66.9268 109.477 64.0663 107.566 63.0959 104.612V104.612C62.2534 102.048 59.9656 100.231 57.277 99.991L49.1868 99.2688C46.4647 99.0257 44.6308 96.3722 45.3658 93.7399V93.7399C46.0173 91.4069 44.6471 88.9889 42.3108 88.349L36.8651 86.8576C34.0293 86.0809 33.0456 82.5611 35.0677 80.4267V80.4267C36.8341 78.5621 36.3421 75.5279 34.0769 74.3171L33.3951 73.9527C30.2362 72.2643 30.2362 67.7357 33.3951 66.0473L34.0769 65.6829C36.3421 64.4721 36.8341 61.4379 35.0677 59.5733V59.5733C33.0456 57.4389 34.0293 53.9191 36.8651 53.1424L42.3108 51.651C44.6471 51.0111 46.0173 48.5931 45.3658 46.2601V46.2601C44.6308 43.6278 46.4647 40.9742 49.1868 40.7312L57.277 40.009C59.9656 39.769 62.2534 37.952 63.0959 35.3876V35.3876C64.0663 32.4339 66.9268 30.5235 70.0269 30.7587L77.3284 31.3127C80.6598 31.5655 83.9367 30.3587 86.3084 28.0057V28.0057C89.1882 25.1485 93.3591 24.0178 97.2876 25.0291L101.132 26.0187C104.98 27.0095 109.058 26.5624 112.601 24.7614V24.7614Z" fill="#070636"/>
<rect x="81" y="143" width="11" height="19" rx="5.5" fill="#070636"/>
<rect x="146" y="143" width="11" height="19" rx="5.5" fill="#070636"/>
<mask id="mask1" mask-type="alpha" maskUnits="userSpaceOnUse" x="98" y="197" width="43" height="19">
<path d="M139.969 200.26C133.647 220.255 105.353 220.255 99.0306 200.26V200.26C98.5202 198.645 99.7255 197 101.419 197H137.581C139.275 197 140.48 198.645 139.969 200.26V200.26Z" fill="#782E2E"/>
</mask>
<g mask="url(#mask1)">
<rect x="96" y="190" width="54" height="27" fill="#630606"/>
<rect x="73" y="204" width="54" height="27" rx="13.5" fill="#C21030"/>
<rect x="73" y="204" width="54" height="27" rx="13.5" fill="#C21030"/>
<rect x="73" y="204" width="54" height="27" rx="13.5" fill="#C21030"/>
<rect x="103" y="175" width="32" height="27" rx="6" fill="white"/>
</g>
<path fill-rule="evenodd" clip-rule="evenodd" d="M100 148H68V157C68 167.493 76.5066 176 87 176C97.4934 176 106 167.493 106 157V148H100ZM100 138H68H58V148V157C58 173.016 70.9837 186 87 186C103.016 186 116 173.016 116 157V148H123V157C123 173.016 135.984 186 152 186C168.016 186 181 173.016 181 157V148V138H171H138H133H123H116H106H100ZM138 148H133V157C133 167.493 141.507 176 152 176C162.493 176 171 167.493 171 157V148H138Z" fill="#CF3232"/>
<defs>
<linearGradient id="paint0_linear" x1="119.5" y1="86" x2="173.5" y2="555" gradientUnits="userSpaceOnUse">
<stop stop-color="#E1A97F"/>
<stop offset="0.997917" stop-color="#CC6D26"/>
</linearGradient>
</defs>
</svg>
