<svg width="99" height="119" viewBox="0 0 99 119" fill="none" xmlns="http://www.w3.org/2000/svg">
<g clip-path="url(#clip0)">
<path d="M99.1856 81.4257V2.975C99.1856 2.18598 98.8597 1.42928 98.2795 0.871357C97.6993 0.313437 96.9124 0 96.0919 0L3.09375 0C2.30583 0.0455415 1.56581 0.378972 1.02518 0.932033C0.484546 1.48509 0.1842 2.21596 0.185622 2.975V81.4257C0.149454 83.5581 0.608349 85.6713 1.52888 87.6116C2.44942 89.5518 3.80841 91.2702 5.50687 92.6415L44.9213 117.393C46.2675 118.434 47.9429 119.001 49.6702 119.001C51.3974 119.001 53.0729 118.434 54.4191 117.393L93.8334 92.6415C95.5359 91.2717 96.8995 89.5543 97.8253 87.6142C98.7512 85.6742 99.2158 83.5601 99.1856 81.4257V81.4257Z" fill="#0091EA"/>
<path opacity="0.8" d="M49.5 119C47.7799 118.988 46.1136 118.422 44.7666 117.393L5.50687 92.6415C3.80841 91.2702 2.44942 89.5518 1.52888 87.6116C0.608349 85.6713 0.149454 83.5581 0.185622 81.4257V2.975C0.1842 2.21596 0.484546 1.48509 1.02518 0.932033C1.5658 0.378972 2.30583 0.0455415 3.09375 0L49.5 0V119Z" fill="#33A7EE"/>
<path d="M49.6856 18.802L60.6684 40.222L85.2638 43.6433L67.4747 60.333L71.6513 83.8653L49.6856 72.7388L27.6891 83.8653L31.8966 60.333L14.1075 43.6433L38.6719 40.222L49.6856 18.802Z" fill="white"/>
</g>
<defs>
<clipPath id="clip0">
<rect width="99" height="119" fill="white"/>
</clipPath>
</defs>
</svg>
