<svg width="203" height="203" viewBox="0 0 203 203" fill="none" xmlns="http://www.w3.org/2000/svg">
<path d="M29.7243 173.28C21.2 164.747 18.7599 151.742 21.4218 134.678C7.47861 124.496 0 113.553 0 101.5C0 89.4469 7.47861 78.5039 21.4218 68.3222C18.7599 51.2575 21.2 38.2528 29.7243 29.7205C38.2487 21.1881 51.2729 18.7458 68.3216 21.4419C78.4938 7.45391 89.4265 0 101.405 0C113.383 0 124.379 7.45391 134.552 21.4419C151.632 18.7458 164.625 21.1881 173.181 29.7205C181.737 38.2528 184.145 51.2575 181.451 68.3222C195.521 78.5039 203 89.4469 203 101.5C203 113.553 195.521 124.496 181.547 134.678C184.24 151.742 181.8 164.747 173.276 173.28C164.751 181.812 151.727 184.254 134.647 181.558C124.475 195.546 113.542 203 101.405 203C89.268 203 78.4304 195.546 68.2265 181.558C51.1778 184.254 38.1536 181.812 29.6293 173.28H29.7243Z" fill="#0091EA"/>
<path d="M82.7401 119.929L69.2723 104.957C67.2877 102.447 64.3936 100.823 61.219 100.437C58.0444 100.051 54.8459 100.934 52.3186 102.896C49.9824 105.076 48.599 108.09 48.4685 111.285C48.3379 114.479 49.4708 117.596 51.6215 119.96L72.8848 143.622C74.869 146.135 77.7663 147.759 80.9431 148.139C84.12 148.519 87.3182 147.625 89.8384 145.652V145.652C90.3024 145.251 90.7366 144.816 91.1377 144.352L151.157 84.2767C153.318 82.0963 154.531 79.1491 154.531 76.0774C154.531 73.0057 153.318 70.0585 151.157 67.8781V67.8781C148.978 65.7145 146.034 64.5005 142.965 64.5005C139.896 64.5005 136.952 65.7145 134.774 67.8781" fill="white"/>
</svg>
